<svg aria-hidden="true" style="width:0;height:0;position:absolute;overflow:hidden" xmlns="http://www.w3.org/2000/svg"><defs><symbol id="icon-burger" viewBox="0 0 53 32"><path fill="none" stroke="#fff" style="stroke:var(--color1,#fff)" stroke-linejoin="round" stroke-linecap="round" stroke-width="3.2" d="M1.6 1.956h50.133M1.6 16.178h50.133M1.6 30.4h50.133"/></symbol><symbol id="icon-lock" viewBox="0 0 25 32"><path fill="none" stroke="#fff" style="stroke:var(--color1,#fff)" stroke-linejoin="round" stroke-linecap="round" stroke-width="2.618" d="M6.545 11.636H2.909c-.803 0-1.455.651-1.455 1.455v16c0 .803.651 1.455 1.455 1.455h18.909c.803 0 1.455-.651 1.455-1.455v-16c0-.803-.651-1.455-1.455-1.455h-3.636m-11.637 0V7.272a5.818 5.818 0 0 1 5.818-5.818v0a5.818 5.818 0 0 1 5.818 5.818v4.364m-11.636 0h11.636"/></symbol><symbol id="icon-love" viewBox="0 0 35 32"><path fill="none" stroke="#fff" style="stroke:var(--color1,#fff)" stroke-width="2.618" d="M17.454 29.091c-30.834-17.116-9.25-35.696 0-23.947 9.251-11.749 30.835 6.831 0 23.947z"/></symbol><symbol id="icon-people" viewBox="0 0 22 32"><path fill="none" stroke="#fff" style="stroke:var(--color1,#fff)" stroke-width="2.618" d="M17.212 7.919c0 3.57-2.822 6.465-6.303 6.465S4.606 11.49 4.606 7.919c0-3.57 2.822-6.465 6.303-6.465s6.303 2.894 6.303 6.465zM1.455 22.465c0-4.463 3.527-8.081 7.879-8.081h3.152c4.351 0 7.879 3.618 7.879 8.081v6.465c0 .892-.705 1.616-1.576 1.616H3.031c-.87 0-1.576-.724-1.576-1.616v-6.465z"/></symbol></defs></svg>