<svg width="258" height="29" xmlns="http://www.w3.org/2000/svg"><path d="M35.468 27.738h.626v.39h-8.486v-.351h.586a1.49 1.49 0 0 0 1.134-.506c.313-.364.444-.753.391-1.168L27.96 6.516l-8.212 18.185c-.73 1.583-1.173 2.907-1.33 3.972h-.39L8.014 7.062l-1.682 19.04c-.052.416.078.805.391 1.169.313.337.678.506 1.095.506h.626v.35H.858v-.389h.626c.73 0 1.356-.22 1.877-.662.548-.441.873-1.038.978-1.791L7.272.325h.39l10.912 23.48L29.25.325h.352l3.011 24.96c.13 1.038.652 1.765 1.565 2.18.39.182.82.273 1.29.273ZM45.984 5.777c2.008-1.039 4.21-1.558 6.61-1.558 2.424 0 4.64.52 6.648 1.558 2.007 1.012 3.598 2.453 4.77 4.322 1.2 1.869 1.8 3.985 1.8 6.347 0 2.362-.6 4.478-1.8 6.347-1.172 1.869-2.763 3.323-4.77 4.361-2.008 1.012-4.067 1.519-6.18 1.519-2.111 0-3.975-.299-5.592-.896-1.616-.597-3.024-1.428-4.223-2.492-1.174-1.064-2.112-2.362-2.816-3.894-.678-1.531-1.017-3.323-1.017-5.373 0-2.077.587-4.05 1.76-5.92 1.2-1.868 2.803-3.309 4.81-4.321Zm-.743 18.651c1.981 2.051 4.432 3.076 7.352 3.076s5.371-1.025 7.353-3.076c1.981-2.076 2.972-4.737 2.972-7.982s-.991-5.893-2.972-7.944c-1.982-2.076-4.433-3.115-7.353-3.115s-5.37 1.039-7.352 3.115c-1.955 2.051-2.933 4.699-2.933 7.944s.978 5.906 2.933 7.982ZM77.443 5.777c2.007-1.039 4.21-1.558 6.609-1.558 2.425 0 4.64.52 6.648 1.558 2.008 1.012 3.598 2.453 4.771 4.322 1.2 1.869 1.8 3.985 1.8 6.347 0 2.362-.6 4.478-1.8 6.347-1.173 1.869-2.763 3.323-4.77 4.361-2.008 1.012-4.068 1.519-6.18 1.519s-3.976-.299-5.592-.896c-1.617-.597-3.024-1.428-4.224-2.492-1.173-1.064-2.111-2.362-2.815-3.894-.679-1.531-1.018-3.323-1.018-5.373 0-2.077.587-4.05 1.76-5.92 1.2-1.868 2.803-3.309 4.81-4.321ZM76.7 24.428c1.981 2.051 4.432 3.076 7.352 3.076s5.37-1.025 7.352-3.076c1.982-2.076 2.972-4.737 2.972-7.982s-.99-5.893-2.972-7.944c-1.981-2.076-4.432-3.115-7.352-3.115s-5.37 1.039-7.352 3.115c-1.956 2.051-2.933 4.699-2.933 7.944s.978 5.906 2.933 7.982Zm51.916-19.274c-.574 0-1.069.194-1.486.584a1.859 1.859 0 0 0-.665 1.363v16.588c0 1.505.091 2.933.274 4.283l.078.7h-.352L106.129 9.477v16.237c0 .571.209 1.052.626 1.441.417.39.925.584 1.525.584h.665v.39h-7.391v-.39h.664c.6 0 1.109-.195 1.526-.584.417-.39.625-.87.625-1.44V9.046c0-1.583-.091-2.998-.273-4.244l-.079-.623.431.04 20.296 19.04V7.1c-.052-.545-.286-.999-.704-1.362a2.103 2.103 0 0 0-1.486-.584h-.665v-.39h7.392v.39h-.665Zm24.571-3.077h-2.503v23.208c0 .675.235 1.259.704 1.752.495.468 1.095.701 1.799.701h.469l.039.39h-8.564v-.39h.508c.678 0 1.252-.233 1.721-.7a2.401 2.401 0 0 0 .782-1.714V3.713A2.401 2.401 0 0 0 147.36 2a2.284 2.284 0 0 0-1.721-.74h-.508V.87h10.559c2.372 0 4.236.662 5.592 1.986 1.356 1.298 2.034 2.998 2.034 5.101 0 2.077-.652 3.881-1.956 5.413-1.277 1.505-2.842 2.258-4.693 2.258.391.182.848.545 1.369 1.09.548.52 1.03 1.065 1.447 1.636 2.242 3.193 3.702 5.166 4.38 5.919.678.726 1.16 1.233 1.447 1.518.287.26.6.52.939.779.339.26.678.467 1.016.623a5.53 5.53 0 0 0 2.425.545v.39h-2.151c-1.121 0-2.164-.195-3.128-.585-.965-.415-1.695-.83-2.19-1.246a27.84 27.84 0 0 1-1.252-1.246c-.339-.415-1.303-1.765-2.894-4.05-1.59-2.284-2.516-3.582-2.776-3.893a14.776 14.776 0 0 0-.822-.974c-.834-.882-1.668-1.324-2.503-1.324v-.389c.209.026.483.039.822.039.339 0 .756-.013 1.251-.039 3.233-.078 5.267-1.428 6.101-4.05.156-.519.235-.999.235-1.44v-.896c-.053-1.74-.509-3.141-1.369-4.205-.861-1.065-2.021-1.636-3.481-1.714a58.327 58.327 0 0 0-2.346-.039Zm18.751 25.661c.704 0 1.317-.208 1.838-.623.522-.415.782-.909.782-1.48V7.256c0-.57-.26-1.064-.782-1.48-.521-.415-1.147-.622-1.877-.622h-.508v-.39h8.838v.39h-.508c-.704 0-1.317.194-1.838.584-.496.39-.77.87-.822 1.44v18.496c.026.571.3 1.065.822 1.48.521.39 1.134.584 1.838.584h.508l.039.39h-8.877v-.39h.547Zm37.775-22.584h-.313c-.573 0-1.134.194-1.681.584-.548.363-1.017.921-1.408 1.674-5.684 12.149-8.643 18.509-8.877 19.08-.444 1.09-.678 1.817-.704 2.18h-.352l-9.66-21.221c-.756-1.532-1.76-2.297-3.011-2.297h-.313v-.39h8.017v.39h-.313c-.495 0-.873.181-1.134.545-.235.337-.352.649-.352.934 0 .286.039.584.117.896l7.001 16.977 7.195-16.9c.131-.337.196-.648.196-.934 0-.311-.13-.636-.391-.973-.261-.364-.652-.545-1.173-.545h-.274v-.39h7.43v.39Zm3.641 22.584c.626 0 1.147-.195 1.564-.584.444-.415.678-.909.704-1.48V7.178c0-.57-.221-1.05-.665-1.44-.443-.39-.977-.584-1.603-.584h-.547v-.39h11.419c1.069 0 2.007-.078 2.816-.233.808-.156 1.329-.286 1.564-.39v4.44l-.43-.04v-.584c0-.545-.183-1.012-.548-1.402-.365-.389-.834-.584-1.408-.584h-8.134v9.89h6.687c.522 0 .913-.155 1.174-.466.286-.312.43-.701.43-1.169v-.506h.43v5.452h-.43v-.507c0-.726-.274-1.22-.821-1.48a2.775 2.775 0 0 0-.665-.155h-6.805v9.89h6.14c1.199 0 2.203-.207 3.011-.623.834-.415 1.46-.908 1.877-1.48.444-.57.887-1.323 1.33-2.258h.391l-2.151 5.569h-15.877v-.39h.547Zm28.905-21.767h-2.072v19.664c.026.805.391 1.415 1.095 1.83.339.182.717.273 1.134.273h.508l.039.39h-8.017v-.39h.548c.599 0 1.108-.195 1.525-.584.443-.415.665-.909.665-1.48V7.178c0-.57-.222-1.05-.665-1.44-.417-.39-.926-.584-1.525-.584h-.548v-.39h9.816c2.451 0 4.38.558 5.788 1.675 1.434 1.116 2.151 2.583 2.151 4.4 0 1.817-.574 3.335-1.721 4.556-1.147 1.22-2.607 1.92-4.38 2.102.834.364 1.838 1.376 3.011 3.037-.026 0 .418.572 1.33 1.714a301.895 301.895 0 0 0 2.229 2.686 26.526 26.526 0 0 0 1.408 1.441c.965.909 2.073 1.363 3.324 1.363v.39h-1.212c-2.06 0-3.676-.403-4.849-1.208a11.434 11.434 0 0 1-2.425-2.22c-.157-.207-.821-1.115-1.995-2.725a302.075 302.075 0 0 0-1.838-2.609c-1.407-1.739-2.724-2.609-3.949-2.609v-.389c3.05 0 4.888-.156 5.514-.467.86-.442 1.447-.909 1.76-1.402a6.324 6.324 0 0 0 .977-3.427c0-1.583-.469-2.803-1.408-3.66-.938-.857-2.203-1.324-3.793-1.402a66.618 66.618 0 0 0-2.425-.039Z" fill="#272727"/></svg>